<svg xmlns="http://www.w3.org/2000/svg" viewBox="0 0 350.01 415.69"><defs><style>.cls-1{fill:#121212;}</style></defs><g id="Layer_2" data-name="Layer 2"><g id="Layer_1-2" data-name="Layer 1"><path class="cls-1" d="M194.69,163.92q-54-22-105.86-44.27a16.07,16.07,0,0,1-5.84-8,13.76,13.76,0,0,1,.52-9.71L105.45,48.2,89.33,35.78,74.55,72a16.08,16.08,0,0,1,2.92,16.53c-3.37,8.28-13.2,12.14-21.89,8.6S42.58,84,46,75.69a16.07,16.07,0,0,1,13.66-9.76L76.2,25.26A15.25,15.25,0,0,1,73.28,9.39,15.51,15.51,0,0,1,89.64.12L226.33,16.38a16.93,16.93,0,0,1,8.3,3.38l109.08,84a15.17,15.17,0,0,1-11.14,27.32l-33.77-4Q287,153.23,275.23,179.41a19,19,0,0,1-6,7.56c-1.67,1.23-4.62,3.41-8.53,3.15l-.38,0Q227.75,177.34,194.69,163.92Z"/><path class="cls-1" d="M272.53,227.62a23.25,23.25,0,0,0-12.81-30.3L84.78,126.41A23.26,23.26,0,1,0,67.3,169.52L196.51,221.9a28.17,28.17,0,0,1,3.32,5.33c14.83,34.47-23.29,87.25-41.2,59s-42.92-51-73.17-32.76l-9.15-7.87c-6.31-8.19-7-19.93,10.94-35.72-13.49-4.45-29.19,12-31,28.59-4.22.25-9.3,1-17.14,2-17,2.13-20.51-16.35-.16-31C-4.75,209.07-12.1,251.1,19,323.87c7.07,16.54,13.75,28.83,6.91,49.78C18.86,395.36,7,399,15.8,409.16c13.57,14.15,118.75,4.85,192.44-23.54,90.64-34.92,59-116.46,44.12-143.59A23.19,23.19,0,0,0,272.53,227.62Z"/><path class="cls-1" d="M150.35,232.1a11.56,11.56,0,1,0-12,11.09A11.56,11.56,0,0,0,150.35,232.1Z"/><path class="cls-1" d="M65,212.91a10.18,10.18,0,1,0-9.77-10.59A10.19,10.19,0,0,0,65,212.91Z"/></g></g></svg>