<svg xmlns="http://www.w3.org/2000/svg" viewBox="0 0 296.95 359.6"><defs><style>.cls-1{fill:#2e3192;}</style></defs><g id="Layer_2" data-name="Layer 2"><g id="Layer_1-2" data-name="Layer 1"><path class="cls-1" d="M164.77,137.52q-47.33-17-92.75-34.45a13.81,13.81,0,0,1-5.3-6.65,11.79,11.79,0,0,1,.1-8.38l17-47.11L69.53,30.79,58.06,62.52a13.88,13.88,0,0,1,3.09,14.15c-2.62,7.25-10.95,10.92-18.56,8.17s-11.67-10.9-9.05-18.15A13.87,13.87,0,0,1,45,57.79L57.84,22.18A13.16,13.16,0,0,1,54.78,8.61,13.37,13.37,0,0,1,68.55,0L186.9,9.29a14.62,14.62,0,0,1,7.26,2.62l96.92,68.56a13.08,13.08,0,0,1-8.65,23.93l-29.23-2.29-18.48,45.94a16.51,16.51,0,0,1-4.94,6.73c-1.4,1.12-3.86,3.1-7.24,3h-.33Q193.73,147.93,164.77,137.52Z"/><path class="cls-1" d="M234.07,189.69A20.05,20.05,0,0,0,222,164L68.77,109a20.06,20.06,0,1,0-13.56,37.76l113.16,40.62a24.61,24.61,0,0,1,3,4.48c14,29.18-17,76-33.44,52.29S99.22,201.76,73.79,218.5L65.63,212c-5.73-6.83-6.76-16.92,8.18-31.16-11.79-3.36-24.74,11.32-25.7,25.72-3.62.37-8,1.2-14.7,2.32-14.58,2.43-18.24-13.38-1.22-26.74-37.68,1.2-42.55,37.68-13.19,99.29,6.67,14,12.85,24.37,7.69,42.66-5.34,18.95-15.47,22.51-7.5,30.95,12.19,11.72,102.49,0,165-27,76.89-33.25,46.81-102.41,33-125.26A20,20,0,0,0,234.07,189.69Z"/><path class="cls-1" d="M129,197.81a10,10,0,1,0-10,10A10,10,0,0,0,129,197.81Z"/><path class="cls-1" d="M54.7,184.25a8.78,8.78,0,1,0-8.79-8.78A8.78,8.78,0,0,0,54.7,184.25Z"/></g></g></svg>