<!DOCTYPE svg PUBLIC "-//W3C//DTD SVG 1.1//EN" "http://www.w3.org/Graphics/SVG/1.1/DTD/svg11.dtd">
<!-- Uploaded to: SVG Repo, www.svgrepo.com, Transformed by: SVG Repo Mixer Tools -->
<svg width="64px" height="64px" viewBox="-4.8 -4.8 57.60 57.60" fill="none" xmlns="http://www.w3.org/2000/svg" stroke="#292929" transform="rotate(0)">
<g id="SVGRepo_bgCarrier" stroke-width="0"/>
<g id="SVGRepo_tracerCarrier" stroke-linecap="round" stroke-linejoin="round" stroke="#CCCCCC" stroke-width="0.4800000000000001"/>
<g id="SVGRepo_iconCarrier"> <rect width="48" height="48" fill="white" fill-opacity="0.01"/> <path d="M6 9C6 7.34315 7.34315 6 9 6H34.2814L42 13.2065V39C42 40.6569 40.6569 42 39 42H9C7.34315 42 6 40.6569 6 39V9Z" fill="#2F88FF" stroke="#000000" stroke-width="4" stroke-linejoin="round"/> <path fill-rule="evenodd" clip-rule="evenodd" d="M24.0083 6L24 13.3846C24 13.7245 23.5523 14 23 14H15C14.4477 14 14 13.7245 14 13.3846L14 6" fill="#2F88FF"/> <path d="M24.0083 6L24 13.3846C24 13.7245 23.5523 14 23 14H15C14.4477 14 14 13.7245 14 13.3846L14 6H24.0083Z" stroke="white" stroke-width="4" stroke-linejoin="round"/> <path d="M9 6H34.2814" stroke="#000000" stroke-width="4" stroke-linecap="round" stroke-linejoin="round"/> <path d="M14 26H34" stroke="white" stroke-width="4" stroke-linecap="round" stroke-linejoin="round"/> <path d="M14 34H24.0083" stroke="white" stroke-width="4" stroke-linecap="round" stroke-linejoin="round"/> </g>
</svg>